<svg xmlns="http://www.w3.org/2000/svg" xmlns:xlink="http://www.w3.org/1999/xlink" width="500" zoomAndPan="magnify" viewBox="0 0 375 374.999991" height="500" preserveAspectRatio="xMidYMid meet" version="1.0"><defs><g/><clipPath id="698e86152e"><path d="M 113 172.476562 L 135 172.476562 L 135 220.476562 L 113 220.476562 Z M 113 172.476562 " clip-rule="nonzero"/></clipPath><clipPath id="714aa6a2da"><path d="M 86.707031 179 L 108 179 L 108 214 L 86.707031 214 Z M 86.707031 179 " clip-rule="nonzero"/></clipPath><clipPath id="2ed4ce4bf4"><path d="M 141 179 L 161.707031 179 L 161.707031 214 L 141 214 Z M 141 179 " clip-rule="nonzero"/></clipPath></defs><path stroke-linecap="butt" transform="matrix(0, 0.75, -0.75, 0, 187.49693, 158.270291)" fill="none" stroke-linejoin="miter" d="M -0.00101328 2.001115 L 99.118785 2.001115 " stroke="#171810" stroke-width="4" stroke-opacity="1" stroke-miterlimit="4"/><g clip-path="url(#698e86152e)"><path fill="#3fad78" d="M 132.101562 172.648438 C 131.753906 172.542969 131.382812 172.476562 131.023438 172.476562 C 129.558594 172.476562 128.253906 173.421875 127.789062 174.804688 L 114.152344 215.707031 C 114.035156 216.054688 113.980469 216.414062 113.980469 216.785156 C 113.980469 218.664062 115.523438 220.195312 117.390625 220.195312 C 118.851562 220.195312 120.160156 219.25 120.625 217.863281 L 134.257812 176.960938 C 134.378906 176.617188 134.429688 176.242188 134.429688 175.882812 C 134.429688 174.417969 133.484375 173.113281 132.101562 172.648438 " fill-opacity="1" fill-rule="nonzero"/></g><g clip-path="url(#714aa6a2da)"><path fill="#3fad78" d="M 106.164062 180.292969 C 105.527344 179.652344 104.660156 179.292969 103.753906 179.292969 C 102.847656 179.292969 101.984375 179.652344 101.34375 180.292969 L 87.710938 193.925781 C 87.070312 194.5625 86.710938 195.429688 86.710938 196.335938 C 86.710938 197.242188 87.070312 198.105469 87.710938 198.746094 L 101.34375 212.378906 C 101.984375 212.992188 102.835938 213.335938 103.714844 213.335938 C 105.578125 213.335938 107.125 211.792969 107.125 209.929688 C 107.125 209.050781 106.777344 208.199219 106.164062 207.558594 L 94.941406 196.335938 L 106.164062 185.109375 C 106.804688 184.472656 107.164062 183.605469 107.164062 182.703125 C 107.164062 181.796875 106.804688 180.929688 106.164062 180.292969 " fill-opacity="1" fill-rule="nonzero"/></g><g clip-path="url(#2ed4ce4bf4)"><path fill="#3fad78" d="M 160.699219 193.925781 L 147.066406 180.292969 C 146.425781 179.679688 145.574219 179.332031 144.695312 179.332031 C 142.832031 179.332031 141.289062 180.878906 141.289062 182.742188 C 141.289062 183.621094 141.632812 184.472656 142.246094 185.109375 L 153.472656 196.335938 L 142.246094 207.558594 C 141.582031 208.199219 141.207031 209.089844 141.207031 210.007812 C 141.207031 211.886719 142.738281 213.417969 144.617188 213.417969 C 145.535156 213.417969 146.425781 213.042969 147.066406 212.378906 L 160.699219 198.746094 C 161.339844 198.105469 161.699219 197.242188 161.699219 196.335938 C 161.699219 195.429688 161.339844 194.5625 160.699219 193.925781 " fill-opacity="1" fill-rule="nonzero"/></g><g fill="#171810" fill-opacity="1"><g transform="translate(206.07421, 187.086813)"><g><path d="M 28.25 -15.0625 C 28.25 -10.195312 26.863281 -6.46875 24.09375 -3.875 C 21.320312 -1.289062 17.320312 0 12.09375 0 L 3.71875 0 L 3.71875 -29.5625 L 13 -29.5625 C 17.832031 -29.5625 21.582031 -28.285156 24.25 -25.734375 C 26.914062 -23.191406 28.25 -19.632812 28.25 -15.0625 Z M 21.75 -14.90625 C 21.75 -21.257812 18.941406 -24.4375 13.328125 -24.4375 L 9.984375 -24.4375 L 9.984375 -5.171875 L 12.6875 -5.171875 C 18.726562 -5.171875 21.75 -8.414062 21.75 -14.90625 Z M 21.75 -14.90625 "/></g></g></g><g fill="#171810" fill-opacity="1"><g transform="translate(236.73032, 187.086813)"><g><path d="M 20.75 0 L 3.71875 0 L 3.71875 -29.5625 L 20.75 -29.5625 L 20.75 -24.4375 L 9.984375 -24.4375 L 9.984375 -17.9375 L 20 -17.9375 L 20 -12.796875 L 9.984375 -12.796875 L 9.984375 -5.171875 L 20.75 -5.171875 Z M 20.75 0 "/></g></g></g><g fill="#171810" fill-opacity="1"><g transform="translate(259.92462, 187.086813)"><g><path d="M 20.59375 -29.5625 L 26.921875 -29.5625 L 16.875 0 L 10.03125 0 L 0 -29.5625 L 6.328125 -29.5625 L 11.890625 -11.96875 C 12.203125 -10.9375 12.519531 -9.726562 12.84375 -8.34375 C 13.175781 -6.957031 13.382812 -5.992188 13.46875 -5.453125 C 13.613281 -6.703125 14.117188 -8.875 14.984375 -11.96875 Z M 20.59375 -29.5625 "/></g></g></g><g fill="#171810" fill-opacity="1"><g transform="translate(206.132803, 231.99832)"><g><path d="M 20.75 0 L 3.71875 0 L 3.71875 -29.5625 L 20.75 -29.5625 L 20.75 -24.4375 L 9.984375 -24.4375 L 9.984375 -17.9375 L 20 -17.9375 L 20 -12.796875 L 9.984375 -12.796875 L 9.984375 -5.171875 L 20.75 -5.171875 Z M 20.75 0 "/></g></g></g><g fill="#171810" fill-opacity="1"><g transform="translate(229.327103, 231.99832)"><g><path d="M 28.25 -15.0625 C 28.25 -10.195312 26.863281 -6.46875 24.09375 -3.875 C 21.320312 -1.289062 17.320312 0 12.09375 0 L 3.71875 0 L 3.71875 -29.5625 L 13 -29.5625 C 17.832031 -29.5625 21.582031 -28.285156 24.25 -25.734375 C 26.914062 -23.191406 28.25 -19.632812 28.25 -15.0625 Z M 21.75 -14.90625 C 21.75 -21.257812 18.941406 -24.4375 13.328125 -24.4375 L 9.984375 -24.4375 L 9.984375 -5.171875 L 12.6875 -5.171875 C 18.726562 -5.171875 21.75 -8.414062 21.75 -14.90625 Z M 21.75 -14.90625 "/></g></g></g><g fill="#171810" fill-opacity="1"><g transform="translate(259.983214, 231.99832)"><g><path d="M 27.796875 -29.5625 L 27.796875 -10.4375 C 27.796875 -8.25 27.304688 -6.332031 26.328125 -4.6875 C 25.347656 -3.039062 23.929688 -1.78125 22.078125 -0.90625 C 20.234375 -0.03125 18.050781 0.40625 15.53125 0.40625 C 11.726562 0.40625 8.773438 -0.566406 6.671875 -2.515625 C 4.566406 -4.460938 3.515625 -7.128906 3.515625 -10.515625 L 3.515625 -29.5625 L 9.765625 -29.5625 L 9.765625 -11.46875 C 9.765625 -9.1875 10.222656 -7.515625 11.140625 -6.453125 C 12.054688 -5.390625 13.570312 -4.859375 15.6875 -4.859375 C 17.738281 -4.859375 19.226562 -5.390625 20.15625 -6.453125 C 21.082031 -7.523438 21.546875 -9.210938 21.546875 -11.515625 L 21.546875 -29.5625 Z M 27.796875 -29.5625 "/></g></g></g></svg>